<svg xmlns="http://www.w3.org/2000/svg" viewBox="0 0 760 180" role="img" aria-labelledby="title desc">
  <title id="title">DevCaught</title>
  <desc id="desc">DevCaught logo for a local-first developer inbox.</desc>
  <defs>
    <linearGradient id="tray" x1="34" x2="132" y1="44" y2="134" gradientUnits="userSpaceOnUse">
      <stop offset="0" stop-color="#18201c"/>
      <stop offset="1" stop-color="#0c0e0d"/>
    </linearGradient>
  </defs>
  <rect width="760" height="180" rx="24" fill="#0c0e0d"/>
  <g transform="translate(34 26)">
    <rect width="128" height="128" rx="28" fill="#101411"/>
    <path
      d="M24 55c0-7.2 5.8-13 13-13h54c7.2 0 13 5.8 13 13v28c0 7.2-5.8 13-13 13H37c-7.2 0-13-5.8-13-13V55Z"
      fill="url(#tray)"
      stroke="#26342d"
      stroke-width="4"
    />
    <path d="M28 73h23.6c4.1 0 6.4 2 8 5.4 1 2 2.3 3.6 4.4 3.6s3.4-1.6 4.4-3.6c1.6-3.4 3.9-5.4 8-5.4H100" fill="none" stroke="#d7ddd9" stroke-width="6" stroke-linecap="round"/>
    <path d="m49 50-13 13 13 13" fill="none" stroke="#26d96c" stroke-width="9" stroke-linecap="round" stroke-linejoin="round"/>
    <path d="m79 50 13 13-13 13" fill="none" stroke="#26d96c" stroke-width="9" stroke-linecap="round" stroke-linejoin="round"/>
    <path d="m69 46-10 34" fill="none" stroke="#26d96c" stroke-width="9" stroke-linecap="round"/>
    <circle cx="91" cy="40" r="9" fill="#ffb020"/>
    <path d="M87 40.3 90 43l5-6" fill="none" stroke="#0c0e0d" stroke-width="3.5" stroke-linecap="round" stroke-linejoin="round"/>
  </g>
  <g fill="#f3f7f4">
    <text x="190" y="88" font-family="Inter, ui-sans-serif, system-ui, -apple-system, BlinkMacSystemFont, Segoe UI, sans-serif" font-size="54" font-weight="750" letter-spacing="0">DevCaught</text>
    <text x="193" y="124" font-family="IBM Plex Mono, ui-monospace, SFMono-Regular, Menlo, monospace" font-size="18" font-weight="500" letter-spacing="0" fill="#9ba8a1">Everything your app sends. Caught.</text>
  </g>
  <path d="M590 64h44c13 0 23 10 23 23v0c0 13-10 23-23 23h-44" fill="none" stroke="#26342d" stroke-width="10" stroke-linecap="round"/>
  <path d="M590 64h44c13 0 23 10 23 23" fill="none" stroke="#26d96c" stroke-width="10" stroke-linecap="round"/>
  <circle cx="590" cy="64" r="7" fill="#ffb020"/>
</svg>
